<?xml version="1.0" encoding="utf-8"?>
<!-- Generator: Adobe Illustrator 27.5.0, SVG Export Plug-In . SVG Version: 6.00 Build 0)  -->
<svg version="1.1" xmlns="http://www.w3.org/2000/svg" xmlns:xlink="http://www.w3.org/1999/xlink" x="0px" y="0px"
	 viewBox="0 0 1122 1122" style="enable-background:new 0 0 1122 1122;" xml:space="preserve">
<g id="Bg">
	<g>
		<g>
			<rect style="fill:#FFFFFF;" width="1122" height="1122"/>
		</g>
	</g>
</g>
<g id="Object">
	<g>
		<path style="fill:#616E7D;" d="M301.548,256.379c-11.898,0-23.531,4.815-31.955,13.227c-8.394,8.412-13.218,20.035-13.218,31.931
			v518.927c0,11.886,4.823,23.519,13.218,31.928c8.424,8.404,20.056,13.23,31.955,13.23h518.904c11.892,0,23.531-4.826,31.93-13.23
			c8.418-8.409,13.242-20.042,13.242-31.928V301.536c0-11.896-4.823-23.519-13.242-31.931c-8.4-8.412-20.038-13.227-31.93-13.227
			H301.548z M421.028,317.471c16.909,0,30.612,13.711,30.612,30.617c0,16.912-13.702,30.62-30.612,30.62
			c-16.915,0-30.623-13.708-30.623-30.62C390.405,331.182,404.112,317.471,421.028,317.471z M327.56,317.471
			c16.921,0,30.611,13.711,30.611,30.617c0,16.912-13.69,30.62-30.611,30.62c-16.891,0-30.605-13.708-30.605-30.62
			C296.955,331.182,310.669,317.471,327.56,317.471z M825.457,804.081H296.955V422.214h528.502V804.081z"/>
		<path style="fill:#FFFFFF;" d="M296.955,804.081h528.502V422.214H296.955V804.081z M809.806,637.988
			c3.831,4.007,5.816,9.547,5.792,15.408c0.024,5.753-2.004,11.239-5.828,15.218c-3.813,3.997-9.369,6.282-15.3,6.258
			c-5.852,0.021-11.329-2.288-15.124-6.255c-3.813-3.943-5.913-9.414-5.889-15.221c-0.024-5.861,2.051-11.381,5.907-15.372
			c3.813-4.007,9.35-6.3,15.263-6.273C800.456,631.718,806.005,633.954,809.806,637.988z M673.756,551.425l9.217,50.147
			l-0.024-0.027c0.097,0.512,0.188,1.044,0.284,1.559c0.151-0.675,0.26-1.323,0.399-1.997l10.271-49.681h37.008l9.217,48.426
			l9.641-48.426h39.036l-31.398,121.677h-37.22l-9.55-48.61l-10.749,48.61h-32.173h-5.314l-28.887-121.677H673.756z
			 M509.291,551.425l9.217,50.147l-0.024-0.027c0.097,0.512,0.188,1.044,0.284,1.559c0.151-0.675,0.26-1.323,0.399-1.997
			l10.271-49.681h37.008l9.217,48.377l9.64-48.377h39.036l-31.404,121.677h-37.22l-9.55-48.589l-10.712,48.589h-32.209h-5.307
			l-28.887-121.677H509.291z M344.826,551.425l9.211,50.147l-0.018-0.027c0.091,0.512,0.188,1.044,0.284,1.559
			c0.151-0.675,0.26-1.323,0.4-1.997l10.264-49.681h37.015l9.211,48.377l9.647-48.377h39.036l-31.422,121.677h-37.202l-9.55-48.589
			l-10.712,48.589H338.78h-5.307l-28.892-121.677H344.826z"/>
		<path style="fill:#AAD4C8;" d="M390.405,348.089c0,16.912,13.708,30.62,30.623,30.62c16.909,0,30.612-13.708,30.612-30.62
			c0-16.906-13.702-30.617-30.612-30.617C404.112,317.471,390.405,331.182,390.405,348.089z"/>
		<path style="fill:#82BFAB;" d="M296.955,348.089c0,16.912,13.714,30.62,30.605,30.62c16.921,0,30.611-13.708,30.611-30.62
			c0-16.906-13.69-30.617-30.611-30.617C310.669,317.471,296.955,331.182,296.955,348.089z"/>
		<path style="fill:#616E7D;" d="M344.826,551.425h-40.246l28.892,121.677h5.307h32.209l10.712-48.589l9.55,48.589h37.202
			l31.422-121.677H420.84l-9.647,48.377l-9.211-48.377h-37.015l-10.264,49.681c-0.139,0.675-0.249,1.323-0.4,1.997
			c-0.097-0.514-0.193-1.047-0.284-1.559l0.018,0.027L344.826,551.425z"/>
		<path style="fill:#616E7D;" d="M509.291,551.425h-40.24l28.887,121.677h5.307h32.209l10.712-48.589l9.55,48.589h37.22
			l31.404-121.677h-39.036l-9.64,48.377l-9.217-48.377h-37.008l-10.271,49.681c-0.139,0.675-0.248,1.323-0.399,1.997
			c-0.097-0.514-0.188-1.047-0.284-1.559l0.024,0.027L509.291,551.425z"/>
		<path style="fill:#616E7D;" d="M673.756,551.425h-40.24l28.887,121.677h5.314h32.173l10.749-48.61l9.55,48.61h37.22
			l31.398-121.677H749.77l-9.641,48.426l-9.217-48.426h-37.008l-10.271,49.681c-0.139,0.675-0.248,1.323-0.399,1.997
			c-0.097-0.514-0.188-1.047-0.284-1.559l0.024,0.027L673.756,551.425z"/>
		<path style="fill:#616E7D;" d="M779.364,638.025c-3.855,3.991-5.931,9.51-5.907,15.372c-0.024,5.807,2.076,11.279,5.889,15.221
			c3.795,3.967,9.272,6.276,15.124,6.255c5.931,0.024,11.487-2.261,15.3-6.258c3.824-3.979,5.852-9.465,5.828-15.218
			c0.024-5.861-1.961-11.402-5.792-15.408c-3.801-4.034-9.35-6.27-15.178-6.236C788.715,631.725,783.177,634.018,779.364,638.025z"
			/>
	</g>
</g>
</svg>
